<svg width="5" height="32" viewBox="0 0 5 32" fill="none" xmlns="http://www.w3.org/2000/svg">
<path d="M4.5 0C4.5 0.262644 4.44827 0.522716 4.34776 0.765369C4.24725 1.00802 4.09993 1.2285 3.91421 1.41421C3.7285 1.59993 3.50802 1.74725 3.26537 1.84776C3.02272 1.94827 2.76264 2 2.5 2C2.23736 2 1.97728 1.94827 1.73463 1.84776C1.49198 1.74725 1.2715 1.59993 1.08579 1.41421C0.900069 1.2285 0.75275 1.00802 0.652241 0.765369C0.551732 0.522716 0.5 0.262644 0.5 0L2.5 0L4.5 0Z" fill="#c3cac8"/>
<path d="M2.5 1L2.5 32" stroke="#c3cac8"/>
</svg>
